
<!-- Generator: visioncortex VTracer 0.6.4 -->
<svg version="1.1" xmlns="http://www.w3.org/2000/svg" viewBox="0 0 150 150" preserveAspectRatio="xMidYMid meet">
<path d="M0 0 C2.487 1.932 4.846 3.942 7.184 6.051 C7.868 6.642 8.553 7.234 9.258 7.844 C21.501 19.125 30.056 36.163 31.405 52.778 C32.323 75.835 28.035 95.476 12.184 113.051 C11.296 114.078 11.296 114.078 10.391 115.125 C-0.891 127.368 -17.928 135.923 -34.543 137.272 C-57.601 138.191 -77.241 133.902 -94.816 118.051 C-95.501 117.459 -96.185 116.867 -96.891 116.258 C-109.134 104.977 -117.689 87.939 -119.038 71.324 C-119.956 48.266 -115.668 28.626 -99.816 11.051 C-99.225 10.366 -98.633 9.682 -98.023 8.977 C-73.119 -18.051 -29.522 -20.432 0 0 Z " fill="#010000" transform="translate(118.81640625,12.94921875)"/>
<path d="M0 0 C7.52 -0.391 7.52 -0.391 10 0 C12.36 2.401 12.947 3.638 13.438 7 C13 10 13 10 11.562 12.375 C7.676 14.839 4.549 14.268 0 14 C0 9.38 0 4.76 0 0 Z " fill="#D24354" transform="translate(25,65)"/>
<path d="M0 0 C0.25 6.625 0.25 6.625 -2 10 C-1.01 10.33 -0.02 10.66 1 11 C0.67 12.65 0.34 14.3 0 16 C-6.625 17.25 -6.625 17.25 -10 15 C-9.886 13.041 -9.759 11.083 -9.625 9.125 C-9.555 8.034 -9.486 6.944 -9.414 5.82 C-9 3 -9 3 -7 1 C-4.609 0.402 -2.465 0 0 0 Z " fill="#B52835" transform="translate(130,67)"/>
<path d="M0 0 C-0.33 2.31 -0.66 4.62 -1 7 C-2.65 7.33 -4.3 7.66 -6 8 C-6 8.66 -6 9.32 -6 10 C-4.35 10 -2.7 10 -1 10 C-0.618 11.656 -0.286 13.325 0 15 C-0.33 15.33 -0.66 15.66 -1 16 C-2.525 15.911 -4.047 15.755 -5.562 15.562 C-6.389 15.461 -7.215 15.359 -8.066 15.254 C-8.704 15.17 -9.343 15.086 -10 15 C-9.886 13.041 -9.759 11.083 -9.625 9.125 C-9.555 8.034 -9.486 6.944 -9.414 5.82 C-9 3 -9 3 -7 1 C-4.499 0.193 -2.661 0 0 0 Z " fill="#C42C3C" transform="translate(55,67)"/>
<path d="M0 0 C0.99 0 1.98 0 3 0 C3 4.29 3 8.58 3 13 C5.31 11.02 7.62 9.04 10 7 C8.68 6.67 7.36 6.34 6 6 C6 5.34 6 4.68 6 4 C8.64 4 11.28 4 14 4 C13.401 7.356 12.154 9.378 10 12 C11.32 12.33 12.64 12.66 14 13 C14 13.66 14 14.32 14 15 C11.854 15.027 9.708 15.046 7.562 15.062 C6.368 15.074 5.173 15.086 3.941 15.098 C1 15 1 15 0 14 C-0.073 11.647 -0.084 9.292 -0.062 6.938 C-0.053 5.647 -0.044 4.357 -0.035 3.027 C-0.024 2.028 -0.012 1.029 0 0 Z " fill="#F34C60" transform="translate(82,64)"/>
<path d="M0 0 C2.938 -0.438 2.938 -0.438 6 0 C7.938 1.688 7.938 1.688 9 4 C8.759 7.37 8.412 8.588 6 11 C3 11.25 3 11.25 0 11 C-2 9 -2 9 -2.25 6.062 C-2 3 -2 3 0 0 Z " fill="#D50D1E" transform="translate(134,68)"/>
<path d="M0 0 C1.931 1.931 1.641 5.396 2 8 C2.33 8.99 2.66 9.98 3 11 C-0.3 11 -3.6 11 -7 11 C-7.33 9.35 -7.66 7.7 -8 6 C-5 4 -5 4 -2 4 C-2 3.34 -2 2.68 -2 2 C-3.65 2.33 -5.3 2.66 -7 3 C-7 2.34 -7 1.68 -7 1 C-4.516 -0.242 -2.748 -0.141 0 0 Z " fill="#C63D4F" transform="translate(78,68)"/>
<path d="M0 0 C7.75 -0.125 7.75 -0.125 10 1 C10 4.3 10 7.6 10 11 C9.01 11 8.02 11 7 11 C7 8.36 7 5.72 7 3 C5.68 3 4.36 3 3 3 C3 5.64 3 8.28 3 11 C2.01 11 1.02 11 0 11 C0 7.37 0 3.74 0 0 Z " fill="#E73447" transform="translate(109,68)"/>
<path d="M0 0 C2.375 -0.125 2.375 -0.125 5 0 C8.158 3.158 7.625 6.626 8 11 C4.7 10.34 1.4 9.68 -2 9 C-1.67 7.68 -1.34 6.36 -1 5 C-0.361 4.876 0.279 4.752 0.938 4.625 C1.618 4.419 2.299 4.213 3 4 C3.33 3.34 3.66 2.68 4 2 C2.35 2.33 0.7 2.66 -1 3 C-0.67 2.01 -0.34 1.02 0 0 Z " fill="#D43444" transform="translate(99,68)"/>
<path d="M0 0 C0.25 6.625 0.25 6.625 -2 10 C-4.625 10.188 -4.625 10.188 -7 10 C-8.309 7.844 -9 6.42 -9 3.875 C-8 2 -8 2 -5.062 0.75 C-2 0 -2 0 0 0 Z " fill="#97040B" transform="translate(130,67)"/>
<path d="M0 0 C0.804 0.433 0.804 0.433 1.625 0.875 C4.353 2.167 7.126 3.086 10 4 C9.402 4.289 8.804 4.578 8.188 4.875 C5.807 6.047 5.807 6.047 3 8 C2.423 9.964 2.423 9.964 2.312 12.125 C2.209 13.404 2.106 14.683 2 16 C0.115 12.761 -0.385 10.031 -0.688 6.312 C-0.817 4.853 -0.817 4.853 -0.949 3.363 C-0.966 2.583 -0.983 1.804 -1 1 C-0.67 0.67 -0.34 0.34 0 0 Z " fill="#AAA743" transform="translate(16,54)"/>
<path d="M0 0 C0.99 0 1.98 0 3 0 C3 0.66 3 1.32 3 2 C3.99 2 4.98 2 6 2 C6 2.66 6 3.32 6 4 C5.01 4 4.02 4 3 4 C3 5.98 3 7.96 3 10 C3.99 10 4.98 10 6 10 C6 10.99 6 11.98 6 13 C4.334 13.043 2.666 13.041 1 13 C0.67 12.67 0.34 12.34 0 12 C0 9.667 0 7.333 0 5 C-0.33 4.01 -0.66 3.02 -1 2 C-0.67 1.34 -0.34 0.68 0 0 Z " fill="#F2586C" transform="translate(63,66)"/>
<path d="M0 0 C2.64 0 5.28 0 8 0 C7.401 3.356 6.154 5.378 4 8 C5.32 8.33 6.64 8.66 8 9 C8 9.66 8 10.32 8 11 C3.71 11 -0.58 11 -5 11 C-5 10.67 -5 10.34 -5 10 C-4.072 9.732 -3.144 9.464 -2.188 9.188 C0.795 8.076 2.119 7.475 4 5 C4.33 4.01 4.66 3.02 5 2 C3.35 2 1.7 2 0 2 C0 1.34 0 0.68 0 0 Z " fill="#DE2836" transform="translate(88,68)"/>
<path d="M0 0 C2.97 0.495 2.97 0.495 6 1 C5.67 1.99 5.34 2.98 5 4 C3.667 4.333 2.333 4.667 1 5 C0.67 5.99 0.34 6.98 0 8 C-1.98 8 -3.96 8 -6 8 C-4.726 5.962 -3.389 3.961 -2 2 C-1.34 2 -0.68 2 0 2 C0 1.34 0 0.68 0 0 Z " fill="#360001" transform="translate(97,69)"/>
<path d="M0 0 C3.3 0 6.6 0 10 0 C10 0.66 10 1.32 10 2 C9.216 2.248 8.433 2.495 7.625 2.75 C4.677 4.154 4.098 5.007 3 8 C3 7.34 3 6.68 3 6 C2.01 6 1.02 6 0 6 C0 4.02 0 2.04 0 0 Z " fill="#1B0000" transform="translate(66,70)"/>
<path d="M0 0 C2.475 0.495 2.475 0.495 5 1 C5 2.98 5 4.96 5 7 C3.35 7.33 1.7 7.66 0 8 C0 5.36 0 2.72 0 0 Z " fill="#000000" transform="translate(29,68)"/>
<path d="M0 0 C0.99 0 1.98 0 3 0 C3 3.63 3 7.26 3 11 C2.01 11 1.02 11 0 11 C0 7.37 0 3.74 0 0 Z " fill="#EA333E" transform="translate(57,68)"/>
<path d="M0 0 C0.33 0 0.66 0 1 0 C1 3.63 1 7.26 1 11 C-1.64 10.34 -4.28 9.68 -7 9 C-7 8.34 -7 7.68 -7 7 C-5.824 6.66 -5.824 6.66 -4.625 6.312 C-1.781 5.219 -1.781 5.219 -0.688 2.375 C-0.461 1.591 -0.234 0.808 0 0 Z " fill="#2A0001" transform="translate(56,68)"/>
<path d="M0 0 C2.31 0.33 4.62 0.66 7 1 C6.67 1.66 6.34 2.32 6 3 C4.68 2.67 3.36 2.34 2 2 C2 4.64 2 7.28 2 10 C1.01 10.495 1.01 10.495 0 11 C0 7.37 0 3.74 0 0 Z " fill="#AD0103" transform="translate(27,66)"/>
<path d="M0 0 C-0.66 2.31 -1.32 4.62 -2 7 C-3.32 7.33 -4.64 7.66 -6 8 C-6.33 7.34 -6.66 6.68 -7 6 C-5.68 6 -4.36 6 -3 6 C-3 5.01 -3 4.02 -3 3 C-4.32 3 -5.64 3 -7 3 C-7.33 3.66 -7.66 4.32 -8 5 C-7.67 3.68 -7.34 2.36 -7 1 C-2.25 0 -2.25 0 0 0 Z " fill="#F06879" transform="translate(130,67)"/>
<path d="M0 0 C-0.66 1.98 -1.32 3.96 -2 6 C-3.65 6.33 -5.3 6.66 -7 7 C-6.01 6.01 -5.02 5.02 -4 4 C-5.65 4.33 -7.3 4.66 -9 5 C-8.25 3.062 -8.25 3.062 -7 1 C-4.505 0.034 -2.703 0 0 0 Z " fill="#E46779" transform="translate(55,67)"/>
<path d="M0 0 C2.062 0.438 2.062 0.438 4 1 C4.33 0.67 4.66 0.34 5 0 C5.33 1.32 5.66 2.64 6 4 C5.196 4.124 4.391 4.248 3.562 4.375 C2.294 4.684 2.294 4.684 1 5 C0.67 5.66 0.34 6.32 0 7 C-0.66 5.35 -1.32 3.7 -2 2 C-1.34 1.34 -0.68 0.68 0 0 Z " fill="#A40109" transform="translate(48,70)"/>
<path d="M0 0 C0.99 0.33 1.98 0.66 3 1 C3 2.98 3 4.96 3 7 C1.68 6.67 0.36 6.34 -1 6 C-1.043 4.334 -1.041 2.666 -1 1 C-0.67 0.67 -0.34 0.34 0 0 Z " fill="#210102" transform="translate(136,70)"/>
<path d="M0 0 C0.99 0.33 1.98 0.66 3 1 C3.144 2.093 3.289 3.186 3.438 4.312 C3.883 7.931 3.883 7.931 5 11 C3.35 10.67 1.7 10.34 0 10 C0.293 7.982 0.586 5.964 0.879 3.945 C1.168 1.919 1.168 1.919 0 0 Z " fill="#E0101B" transform="translate(76,68)"/>
<path d="M0 0 C0.99 0.33 1.98 0.66 3 1 C2.907 2.176 2.907 2.176 2.812 3.375 C2.874 4.241 2.936 5.108 3 6 C3.99 6.66 4.98 7.32 6 8 C1.25 7.25 1.25 7.25 -1 5 C-0.625 2.375 -0.625 2.375 0 0 Z " fill="#F14A5E" transform="translate(133,70)"/>
<path d="M0 0 C0.33 0 0.66 0 1 0 C1 1.98 1 3.96 1 6 C1.99 6 2.98 6 4 6 C4 6.99 4 7.98 4 9 C2.35 9 0.7 9 -1 9 C-1.33 8.01 -1.66 7.02 -2 6 C-1.34 6 -0.68 6 0 6 C0 4.02 0 2.04 0 0 Z " fill="#D5101E" transform="translate(65,70)"/>
</svg>